<svg width="20" height="20" viewBox="0 0 20 20" fill="none" xmlns="http://www.w3.org/2000/svg">
  <g clip-path="url(#clip0_30_1770)">
    <path
      fill-rule="evenodd"
      clip-rule="evenodd"
      d="M9.99996 3.33366C9.76984 3.33366 9.58329 3.52021 9.58329 3.75033C9.58329 3.98044 9.76984 4.16699 9.99996 4.16699C10.2301 4.16699 10.4166 3.98044 10.4166 3.75033C10.4166 3.52021 10.2301 3.33366 9.99996 3.33366ZM7.91663 3.75033C7.91663 2.59973 8.84937 1.66699 9.99996 1.66699C11.1506 1.66699 12.0833 2.59973 12.0833 3.75033C12.0833 4.90092 11.1506 5.83366 9.99996 5.83366C8.84937 5.83366 7.91663 4.90092 7.91663 3.75033Z"
      fill="#fff"
    ></path>
    <path
      d="M7.49996 13.542C8.19032 13.542 8.74996 12.9823 8.74996 12.292C8.74996 11.6016 8.19032 11.042 7.49996 11.042C6.8096 11.042 6.24996 11.6016 6.24996 12.292C6.24996 12.9823 6.8096 13.542 7.49996 13.542Z"
      fill="#fff"
    ></path>
    <path
      d="M12.5 13.542C13.1903 13.542 13.75 12.9823 13.75 12.292C13.75 11.6016 13.1903 11.042 12.5 11.042C11.8096 11.042 11.25 11.6016 11.25 12.292C11.25 12.9823 11.8096 13.542 12.5 13.542Z"
      fill="#fff"
    ></path>
    <path
      fill-rule="evenodd"
      clip-rule="evenodd"
      d="M9.99996 4.79199C10.4602 4.79199 10.8333 5.16509 10.8333 5.62533V6.25033H15.4166C16.3371 6.25033 17.0833 6.99652 17.0833 7.91699V10.2087H17.5C17.9602 10.2087 18.3333 10.5818 18.3333 11.042V13.542C18.3333 14.0022 17.9602 14.3753 17.5 14.3753H17.0833V16.667C17.0833 17.5875 16.3371 18.3337 15.4166 18.3337H4.58329C3.66282 18.3337 2.91663 17.5875 2.91663 16.667V14.3753H2.49996C2.03972 14.3753 1.66663 14.0022 1.66663 13.542V11.042C1.66663 10.5818 2.03972 10.2087 2.49996 10.2087H2.91663V7.91699C2.91663 6.99652 3.66282 6.25033 4.58329 6.25033H9.16663V5.62533C9.16663 5.16509 9.53972 4.79199 9.99996 4.79199ZM4.58329 7.91699V16.667H15.4166V7.91699H4.58329Z"
      fill="#fff"
    ></path>
  </g>
  <defs>
    <clipPath id="clip0_30_1770"><rect width="20" height="20" fill="white"></rect></clipPath>
  </defs>
</svg>
