<svg width="19" height="20" viewBox="0 0 19 20" fill="none" xmlns="http://www.w3.org/2000/svg">
  <path
    fill-rule="evenodd"
    clip-rule="evenodd"
    d="M8.00323 15.5V17C8.00323 17.5523 8.45095 18 9.00323 18C9.55552 18 10.0032 17.5523 10.0032 17V15.5H12.0032V17C12.0032 18.6569 10.6601 20 9.00323 20C7.34638 20 6.00323 18.6569 6.00323 17V15.5H8.00323Z"
    fill="#fff"
  ></path>
  <path
    fill-rule="evenodd"
    clip-rule="evenodd"
    d="M16 7L16.0033 7C16.0033 3.13401 12.8692 0 9.00325 0C5.13726 0 2.00325 3.13401 2.00325 7V13L0.726858 15.5528C0.394408 16.2177 0.877904 17 1.62129 17H10H12C12.5523 17 13 16.5523 13 16C13 15.4477 12.5523 15 12 15H10H3.23932L3.79211 13.8944C3.93096 13.6167 4.00325 13.3105 4.00325 13V7C4.00325 4.23858 6.24183 2 9.00325 2C11.7647 2 14.0033 4.23858 14.0033 7L14 7C14 7.55228 14.4477 8 15 8C15.5523 8 16 7.55228 16 7Z"
    fill="#fff"
  ></path>
  <path
    fill-rule="evenodd"
    clip-rule="evenodd"
    d="M11 13C11 12.4477 11.4477 12 12 12H18C18.5523 12 19 12.4477 19 13C19 13.5523 18.5523 14 18 14H12C11.4477 14 11 13.5523 11 13Z"
    fill="#fff"
  ></path>
  <path
    fill-rule="evenodd"
    clip-rule="evenodd"
    d="M15 17C14.4477 17 14 16.5523 14 16L14 10C14 9.44772 14.4477 9 15 9C15.5523 9 16 9.44772 16 10L16 16C16 16.5523 15.5523 17 15 17Z"
    fill="#fff"
  ></path>
</svg>
