<svg xmlns="http://www.w3.org/2000/svg" width="78" height="16" fill="none" viewBox="0 0 78 16">
  <path
    fill="#000"
    d="M13.136 5.455c-.096.072-1.803.995-1.803 3.048 0 2.375 2.172 3.215 2.237 3.236-.01.051-.345 1.15-1.145 2.27-.714.986-1.459 1.97-2.592 1.97-1.134 0-1.425-.632-2.734-.632-1.275 0-1.728.653-2.765.653-1.037 0-1.76-.912-2.592-2.032C.778 12.652 0 10.609 0 8.67c0-3.111 2.107-4.76 4.18-4.76 1.102 0 2.02.694 2.712.694.659 0 1.686-.736 2.939-.736.475 0 2.182.041 3.305 1.587Zm-3.9-2.904c.518-.59.885-1.41.885-2.23 0-.113-.01-.228-.032-.321-.843.03-1.847.54-2.452 1.213-.475.518-.918 1.338-.918 2.168 0 .125.022.25.032.29.053.01.14.02.226.02.757 0 1.709-.486 2.259-1.14Z"
  ></path>
  <path
    fill="#666"
    d="m20.166 13.143 2.844-8.88h2.088l2.844 8.88h-1.86l-1.272-4.62c-.264-.924-.516-1.956-.768-2.904h-.048c-.24.96-.492 1.98-.756 2.904l-1.272 4.62h-1.8Zm1.764-2.28V9.495h4.224v1.368H21.93ZM28.85 15.723V6.435h1.428l.144.696h.036c.552-.492 1.248-.864 1.968-.864 1.656 0 2.64 1.344 2.64 3.42 0 2.304-1.38 3.624-2.856 3.624-.576 0-1.152-.252-1.656-.72l.06 1.092v2.04H28.85Zm2.976-3.864c.804 0 1.428-.696 1.428-2.148 0-1.296-.396-2.004-1.332-2.004-.444 0-.852.228-1.308.696v2.964c.42.372.852.492 1.212.492ZM36.572 15.723V6.435H38l.144.696h.036c.552-.492 1.248-.864 1.968-.864 1.656 0 2.64 1.344 2.64 3.42 0 2.304-1.38 3.624-2.856 3.624-.576 0-1.152-.252-1.656-.72l.06 1.092v2.04h-1.764Zm2.976-3.864c.804 0 1.428-.696 1.428-2.148 0-1.296-.396-2.004-1.332-2.004-.444 0-.852.228-1.308.696v2.964c.42.372.852.492 1.212.492ZM49.81 13.31c-1.2 0-2.376-.455-3.24-1.283l1.02-1.224c.624.588 1.476.972 2.256.972.924 0 1.404-.396 1.404-1.008 0-.66-.54-.876-1.332-1.212L48.73 9.05c-.888-.36-1.8-1.092-1.8-2.376 0-1.452 1.284-2.568 3.072-2.568 1.032 0 2.064.408 2.784 1.14l-.888 1.116c-.576-.468-1.164-.732-1.896-.732-.78 0-1.272.348-1.272.924 0 .636.636.876 1.392 1.176l1.164.48c1.068.444 1.776 1.14 1.776 2.412 0 1.452-1.212 2.688-3.252 2.688ZM56.517 13.31c-1.597 0-2.209-1.007-2.209-2.507V7.815h-.935V6.507l1.044-.072.191-1.824h1.465v1.824h1.667v1.38h-1.668v2.988c0 .768.325 1.128.912 1.128.228 0 .48-.084.672-.156l.288 1.284a4.36 4.36 0 0 1-1.428.252ZM61.634 13.31c-1.692 0-3.228-1.295-3.228-3.515 0-2.232 1.536-3.528 3.228-3.528 1.68 0 3.216 1.296 3.216 3.528 0 2.22-1.536 3.516-3.216 3.516Zm0-1.427c.912 0 1.416-.828 1.416-2.088 0-1.272-.504-2.088-1.416-2.088-.924 0-1.428.816-1.428 2.088 0 1.26.504 2.088 1.428 2.088ZM66.338 13.143V6.435h1.428l.144 1.188h.036c.48-.888 1.212-1.356 1.908-1.356.36 0 .576.048.78.144l-.3 1.512c-.24-.06-.42-.108-.708-.108-.516 0-1.152.36-1.524 1.332v3.996h-1.764ZM74.305 13.31c-1.884 0-3.348-1.295-3.348-3.515 0-2.184 1.536-3.528 3.12-3.528 1.86 0 2.808 1.344 2.808 3.204 0 .336-.036.648-.072.816h-4.152c.156 1.104.876 1.668 1.872 1.668.54 0 1.02-.168 1.512-.468l.588 1.092a4.18 4.18 0 0 1-2.328.732Zm-1.668-4.2h2.748c0-.911-.408-1.487-1.272-1.487-.708 0-1.332.504-1.476 1.488Z"
  ></path>
</svg>
