<svg xmlns="http://www.w3.org/2000/svg" width="44" height="44" viewBox="0 0 44 44">
  <g fill="none" fill-rule="evenodd">
    <g>
      <g>
        <g
          transform="translate(-158.000000, -398.000000) translate(90.000000, 398.000000) translate(68.000000, 0.000000)"
        >
          <circle cx="22" cy="22" r="22" fill="#000"></circle>
          <g>
            <path d="M0 0L20.9 0 20.9 20.9 0 20.9z" transform="translate(11.275000, 11.000000)"></path>
            <path
              fill="#FFF"
              fill-rule="nonzero"
              d="M10.585 4.823c.943 0 2.126-.638 2.83-1.488.638-.77 1.103-1.847 1.103-2.923 0-.146-.014-.292-.04-.412-1.05.04-2.312.704-3.07 1.594-.597.678-1.142 1.741-1.142 2.83 0 .16.026.32.04.373.066.013.172.026.279.026zM7.263 20.9c1.289 0 1.86-.864 3.468-.864 1.634 0 1.993.837 3.428.837 1.408 0 2.352-1.302 3.242-2.577.996-1.462 1.408-2.897 1.435-2.963-.093-.027-2.79-1.13-2.79-4.225 0-2.684 2.125-3.893 2.245-3.986-1.408-2.02-3.548-2.073-4.132-2.073-1.581 0-2.87.957-3.68.957-.878 0-2.033-.904-3.402-.904-2.604 0-5.248 2.153-5.248 6.218 0 2.525.983 5.195 2.192 6.923 1.036 1.461 1.94 2.657 3.242 2.657z"
              transform="translate(11.275000, 11.000000)"
            ></path>
          </g>
        </g>
      </g>
    </g>
  </g>
</svg>
