<svg xmlns="http://www.w3.org/2000/svg" width="86" height="28" viewBox="0 0 86 28" class="logo">
  <g fill="none" fill-rule="evenodd">
    <path
      fill="#e5e5e5"
      class="text"
      d="M0 21.476l3.382-3.046c.702.978 1.5 1.467 2.396 1.467.493 0 .9-.148 1.221-.445.321-.296.541-.718.66-1.266l1.233-6.248h-5.33l.806-3.98h10.548l-1.97 9.783c-.434 2.193-1.24 3.765-2.42 4.713s-2.792 1.423-4.837 1.423c-2.628 0-4.524-.8-5.689-2.401M29.674 11.938l-2.472 11.939H22.5l.243-1.433c-.515.483-1.082.84-1.7 1.074-.618.234-1.244.359-1.876.359-1.295 0-2.333-.359-3.112-1.06-.78-.701-1.17-1.709-1.17-3.024 0-.496.051-1 .154-1.511l1.324-6.344h4.99l-1.215 5.752c-.059.35-.088.6-.088.745 0 .847.404 1.462 1.214 1.462 1.148 0 1.876-.95 2.185-2.47l1.17-5.489h5.055zM50.5 13c.773.71 1.16 1.72 1.16 3.036 0 .496-.052.993-.155 1.49l-1.324 6.35h-4.99l1.215-5.715c.058-.248.088-.607.088-.855 0-.439-.096-.823-.287-1.042-.191-.219-.456-.35-.794-.35-1.016 0-1.664.888-1.943 2.29l-1.192 5.673h-4.989l1.214-5.716c.06-.248.089-.607.089-.855 0-.439-.096-.823-.287-1.042-.192-.219-.457-.35-.795-.35-1 0-1.655.918-1.964 2.378l-1.17 5.585h-4.989l2.406-11.939h4.702l-.243 1.305c.5-.468 1.044-.738 1.633-.965.589-.226 1.192-.34 1.81-.34.751 0 1.442.161 2.075.482.633.322 1.126.797 1.48 1.424.529-.613 1.154-1.084 1.876-1.413.72-.328 1.508-.493 2.361-.493 1.237 0 2.241.355 3.013 1.063M61.979 19.716c.404-.496.607-1.16.607-1.993 0-.57-.158-.96-.474-1.303-.317-.343-.755-.507-1.314-.507-.648 0-1.174.174-1.578.67-.405.497-.608 1.162-.608 1.994 0 .57.159 1.026.475 1.37.317.343.754.514 1.314.514.647 0 1.173-.248 1.578-.745m3.08-7.12c.764.438 1.386 1.077 1.864 1.917.478.84.718 1.83.718 2.969 0 1.285-.291 2.454-.872 3.505-.582 1.052-1.365 1.654-2.351 2.253-.986.6-2.053.637-3.2.637-1.62 0-2.767-.527-3.444-1.521l-1.27 5.5h-4.867l3.29-15.918h4.7l-.22 1.305c.913-.877 2.001-1.305 3.267-1.305.824 0 1.619.22 2.384.658M71.279 11.938L76.246 11.938 73.751 23.877 68.785 23.877zM78.555 11.938l.82-3.98h4.989l-.791 3.98h2.247l-.832 3.955H82.73l-.596 3.002c-.03.175-.044.292-.044.35 0 .556.31.961.927.961.324 0 .72-.135 1.133-.325l.545 3.309c-.854.467-1.722.687-3.046.687-1.368 0-2.447-.377-3.234-1.028-.787-.65-1.402-1.566-1.402-2.75 0-.379.045-.773.133-1.183l.546-3.023.863-3.955M77.124 7.954c0 1.5-1.215 2.715-2.714 2.715-1.5 0-2.715-1.216-2.715-2.715 0-1.499 1.215-2.714 2.715-2.714 1.499 0 2.714 1.215 2.714 2.714"
      transform="translate(-420 -16) translate(420 16)"
    ></path>
    <path
      fill="#e5e5e5"
      d="M16.011 2.985c0 1.648-1.336 2.984-2.984 2.984-1.649 0-2.985-1.336-2.985-2.984C10.042 1.336 11.378 0 13.027 0c1.648 0 2.984 1.336 2.984 2.985"
      transform="translate(-420 -16) translate(420 16)"
    ></path>
  </g>
</svg>
