<svg width="44" height="44" viewBox="0 0 44 44" fill="none" xmlns="http://www.w3.org/2000/svg">
  <path
    fill-rule="evenodd"
    clip-rule="evenodd"
    d="M22 44C9.9 44 0 34.1 0 22C0 9.9 9.9 0 22 0C34.1 0 44 9.9 44 22C44 34.1 34.1 44 22 44Z"
    fill="black"
  ></path>
  <path
    fill-rule="evenodd"
    clip-rule="evenodd"
    d="M22 44C9.9 44 0 34.1 0 22C0 9.9 9.9 0 22 0C34.1 0 44 9.9 44 22C44 34.1 34.1 44 22 44Z"
    fill="#191717"
  ></path>
  <path
    fill-rule="evenodd"
    clip-rule="evenodd"
    d="M22 11C15.9227 11 11 15.9227 11 22C11 26.8619 14.1535 30.981 18.5224 32.4395C19.0694 32.5408 19.2719 32.2032 19.2719 31.9061C19.2719 31.6427 19.2652 30.954 19.2584 30.0356C16.1995 30.6974 15.5513 28.5635 15.5513 28.5635C15.0516 27.294 14.329 26.9564 14.329 26.9564C13.3296 26.2744 14.4033 26.2879 14.4033 26.2879C15.504 26.3689 16.0915 27.4223 16.0915 27.4223C17.0706 29.1037 18.6642 28.6176 19.2922 28.3339C19.3935 27.6249 19.6771 27.1387 19.9877 26.8619C17.5433 26.585 14.9773 25.6397 14.9773 21.426C14.9773 20.2241 15.4027 19.2449 16.1117 18.4751C15.9969 18.1983 15.6188 17.0773 16.2198 15.5648C16.2198 15.5648 17.1449 15.2676 19.2449 16.6924C20.1228 16.4494 21.0614 16.3278 22 16.3211C22.9319 16.3211 23.8772 16.4494 24.7551 16.6924C26.8551 15.2676 27.7802 15.5648 27.7802 15.5648C28.3812 17.0773 28.0031 18.1983 27.8883 18.4751C28.5905 19.2449 29.016 20.2241 29.016 21.426C29.016 25.6532 26.4432 26.5783 23.992 26.8551C24.3837 27.1928 24.7416 27.868 24.7416 28.8944C24.7416 30.3665 24.7281 31.5482 24.7281 31.9128C24.7281 32.2099 24.9239 32.5476 25.4843 32.4395C29.8533 30.981 33 26.8619 33 22.0068C33 15.9227 28.0773 11 22 11Z"
    fill="white"
  ></path>
</svg>
