<svg xmlns="http://www.w3.org/2000/svg" width="92" height="16" fill="none" viewBox="0 0 92 16">
  <path
    fill="#666"
    d="M26.525 13.262c-2.403 0-4.245-1.602-4.245-4.555 0-2.917 1.89-4.615 4.245-4.615 1.267 0 2.152.55 2.726 1.124l-.933 1.135c-.442-.418-.945-.74-1.734-.74-1.482 0-2.498 1.147-2.498 3.036 0 1.937.884 3.085 2.618 3.085.43 0 .86-.12 1.112-.323V9.663h-1.578V8.217h3.156v3.981c-.598.598-1.65 1.064-2.87 1.064ZM33.947 13.262c-1.686 0-3.216-1.291-3.216-3.503 0-2.224 1.53-3.515 3.216-3.515 1.674 0 3.204 1.291 3.204 3.515 0 2.212-1.53 3.503-3.204 3.503Zm0-1.423c.908 0 1.41-.825 1.41-2.08 0-1.267-.502-2.08-1.41-2.08-.92 0-1.423.813-1.423 2.08 0 1.255.502 2.08 1.423 2.08ZM41.431 13.262c-1.686 0-3.216-1.291-3.216-3.503 0-2.224 1.53-3.515 3.216-3.515 1.674 0 3.204 1.291 3.204 3.515 0 2.212-1.53 3.503-3.204 3.503Zm0-1.423c.909 0 1.41-.825 1.41-2.08 0-1.267-.501-2.08-1.41-2.08-.92 0-1.423.813-1.423 2.08 0 1.255.502 2.08 1.423 2.08ZM48.46 16c-1.565 0-2.785-.538-2.785-1.71 0-.562.335-1.052.957-1.387v-.06a1.29 1.29 0 0 1-.61-1.135c0-.502.335-.957.753-1.244v-.048c-.466-.334-.908-.968-.908-1.757 0-1.578 1.29-2.415 2.702-2.415.382 0 .74.06 1.016.167H52v1.292h-1.148c.18.227.311.597.311 1.004 0 1.518-1.148 2.271-2.594 2.271-.264 0-.562-.047-.861-.155-.18.167-.287.31-.287.586 0 .347.275.55 1.052.55h1.148c1.614 0 2.498.49 2.498 1.674 0 1.35-1.422 2.367-3.658 2.367Zm.108-6.098c.586 0 1.053-.454 1.053-1.243 0-.79-.455-1.22-1.053-1.22-.585 0-1.052.43-1.052 1.22s.467 1.243 1.053 1.243Zm.168 4.986c1.004 0 1.686-.442 1.686-.956 0-.479-.395-.61-1.112-.61h-.813c-.407 0-.682-.024-.92-.096-.312.251-.443.514-.443.79 0 .561.621.872 1.602.872ZM54.901 13.262c-1.231 0-1.65-.801-1.65-2.044V3.566h1.758v7.723c0 .419.18.55.347.55.06 0 .107 0 .227-.024l.215 1.304a2.57 2.57 0 0 1-.897.143ZM59.94 13.262c-1.877 0-3.336-1.291-3.336-3.503 0-2.176 1.53-3.515 3.109-3.515 1.853 0 2.798 1.339 2.798 3.192 0 .335-.036.646-.072.813h-4.137c.156 1.1.873 1.662 1.865 1.662.538 0 1.016-.167 1.507-.466l.586 1.088a4.165 4.165 0 0 1-2.32.73Zm-1.662-4.185h2.738c0-.908-.406-1.482-1.267-1.482-.706 0-1.327.502-1.47 1.482ZM66.822 13.095V4.247h2.905c1.95 0 3.456.682 3.456 2.786 0 2.02-1.507 2.917-3.408 2.917h-1.183v3.145h-1.77Zm1.77-4.544h1.064c1.22 0 1.805-.514 1.805-1.518 0-1.04-.646-1.375-1.865-1.375h-1.004v2.893ZM76.303 13.262c-1.231 0-1.65-.801-1.65-2.044V3.566h1.758v7.723c0 .419.18.55.346.55.06 0 .108 0 .228-.024l.215 1.304a2.57 2.57 0 0 1-.897.143ZM80.063 13.262c-1.196 0-1.973-.837-1.973-1.985 0-1.422 1.16-2.176 3.85-2.475-.036-.657-.311-1.147-1.136-1.147-.622 0-1.232.263-1.841.633l-.634-1.171c.789-.479 1.734-.873 2.798-.873 1.697 0 2.57 1.004 2.57 2.953v3.898h-1.435l-.131-.706h-.048c-.586.502-1.255.873-2.02.873Zm.573-1.375c.502 0 .873-.227 1.304-.646v-1.35c-1.638.203-2.176.645-2.176 1.255 0 .514.358.741.872.741ZM86.062 15.785c-.382 0-.657-.048-.908-.132l.322-1.35c.12.035.3.095.467.095.67 0 1.052-.43 1.255-1.028l.108-.395-2.607-6.564h1.782l1.052 3.097c.203.61.37 1.255.574 1.9h.06c.143-.633.31-1.266.466-1.9l.932-3.097h1.686l-2.38 6.899c-.585 1.566-1.302 2.475-2.809 2.475Z"
  ></path>
  <path
    fill="#32BBFF"
    d="M12.004 5.468A23923.23 23923.23 0 0 1 2.712.188 1.08 1.08 0 0 0 1.749.06l7.79 7.91 2.465-2.502Z"
  ></path>
  <path
    fill="#32BBFF"
    d="M1.749.06A1.115 1.115 0 0 0 1 1.12v13.7a1.114 1.114 0 0 0 .749 1.06l7.79-7.91L1.75.06Z"
  ></path>
  <path
    fill="#32BBFF"
    d="m9.54 7.97-7.791 7.91c.304.105.656.08.963-.128 4.403-2.503 7.297-4.147 9.142-5.192l.152-.086L9.539 7.97Z"
  ></path>
  <path fill="#2C9FD9" d="M1 7.97v6.85a1.115 1.115 0 0 0 .749 1.06l7.79-7.91H1Z"></path>
  <path fill="#29CC5E" d="M2.711.188A1.084 1.084 0 0 0 1.583.132L9.421 8.09l2.582-2.622L2.711.188Z"></path>
  <path
    fill="#D93F21"
    d="m9.421 7.85-7.838 7.958c.336.181.765.191 1.128-.056 4.404-2.503 7.298-4.147 9.143-5.191l.152-.087L9.42 7.85Z"
  ></path>
  <path
    fill="#FFD500"
    d="M15.257 7.97c0-.38-.189-.762-.563-.975l-2.842-1.613L9.303 7.97l2.552 2.59c2.12-1.207 2.84-1.615 2.84-1.615.373-.212.562-.595.562-.975Z"
  ></path>
  <path
    fill="#FA0"
    d="M14.694 8.945c.374-.213.563-.596.563-.975H9.303l2.552 2.59c2.12-1.208 2.84-1.615 2.84-1.615Z"
  ></path>
</svg>
