<svg xmlns="http://www.w3.org/2000/svg" width="44" height="44" viewBox="0 0 44 44">
  <g fill="none" fill-rule="evenodd">
    <g>
      <g transform="translate(-90.000000, -398.000000) translate(90.000000, 398.000000)">
        <circle cx="22" cy="22" r="22" fill="#F4F4F4"></circle>
        <g>
          <path
            fill="#4285F4"
            d="M21.56 11.25c0-.78-.07-1.53-.2-2.25H11v4.255h5.92c-.255 1.375-1.03 2.54-2.195 3.32v2.76h3.555c2.08-1.915 3.28-4.735 3.28-8.085z"
            transform="translate(11.000000, 11.000000)"
          ></path>
          <path
            fill="#34A853"
            d="M11 22c2.97 0 5.46-.985 7.28-2.665l-3.555-2.76c-.985.66-2.245 1.05-3.725 1.05-2.865 0-5.29-1.935-6.155-4.535H1.17v2.85C2.98 19.535 6.7 22 11 22z"
            transform="translate(11.000000, 11.000000)"
          ></path>
          <path
            fill="#FBBC05"
            d="M4.845 13.09c-.22-.66-.345-1.365-.345-2.09 0-.725.125-1.43.345-2.09V6.06H1.17C.425 7.545 0 9.225 0 11c0 1.775.425 3.455 1.17 4.94l3.675-2.85z"
            transform="translate(11.000000, 11.000000)"
          ></path>
          <path
            fill="#EA4335"
            d="M11 4.375c1.615 0 3.065.555 4.205 1.645l3.155-3.155C16.455 1.09 13.965 0 11 0 6.7 0 2.98 2.465 1.17 6.06l3.675 2.85C5.71 6.31 8.135 4.375 11 4.375z"
            transform="translate(11.000000, 11.000000)"
          ></path>
          <path d="M0 0L22 0 22 22 0 22z" transform="translate(11.000000, 11.000000)"></path>
        </g>
      </g>
    </g>
  </g>
</svg>
