<svg xmlns="http://www.w3.org/2000/svg" width="16" height="16" viewBox="0 0 16 16" fill="none">
  <path
    d="M4.2817 14.627V7.40723H1V14.627H4.2817Z"
    fill="white"
    stroke="white"
    stroke-width="1.2"
    stroke-linecap="round"
    stroke-linejoin="round"
  />
  <path
    d="M10.0661 6.09438V3.46902C10.0661 2.9468 9.85861 2.44598 9.48934 2.07671C9.12008 1.70745 8.61925 1.5 8.09704 1.5L5.47168 7.40706V14.6268H12.8752C13.1918 14.6304 13.499 14.5194 13.7402 14.3144C13.9814 14.1093 14.1404 13.824 14.1879 13.511L15.0936 7.60396C15.1222 7.41582 15.1095 7.22373 15.0564 7.04098C15.0034 6.85824 14.9112 6.68921 14.7864 6.54562C14.6615 6.40203 14.5069 6.2873 14.3333 6.20938C14.1597 6.13146 13.9712 6.09222 13.7809 6.09438H10.0661Z"
    fill="white"
    stroke="white"
    stroke-width="1.2"
    stroke-linecap="round"
    stroke-linejoin="round"
  />
</svg>
